REM DIRINDEX 1\2,1\3,1\4
REM DIRNAME cjc105,folder01,folder02,folder03
TITLE ""
FILE "DISC1Track03.mp3" MP3
  TRACK 01 AUDIO
    TITLE "0:"
    INDEX 01 00:00:00
  TRACK 02 AUDIO
    TITLE "4:cjc105_0150"
    INDEX 01 00:00:11
  TRACK 03 AUDIO
    TITLE "0:"
    INDEX 01 00:07:39
  TRACK 04 AUDIO
    TITLE "2:cjc105_0151"
    INDEX 01 00:08:11
  TRACK 05 AUDIO
    TITLE "2:cjc105_0152"
    INDEX 01 00:11:17
  TRACK 06 AUDIO
    TITLE "2:cjc105_0153"
    INDEX 01 00:14:43
  TRACK 07 AUDIO
    TITLE "2:cjc105_0154"
    INDEX 01 00:17:55
  TRACK 08 AUDIO
    TITLE "2:cjc105_0155"
    INDEX 01 00:20:57
  TRACK 09 AUDIO
    TITLE "2:cjc105_0156"
    INDEX 01 00:23:71
  TRACK 10 AUDIO
    TITLE "2:cjc105_0157"
    INDEX 01 00:26:67
  TRACK 11 AUDIO
    TITLE "2:cjc105_0158"
    INDEX 01 00:30:38
  TRACK 12 AUDIO
    TITLE "2:cjc105_0159"
    INDEX 01 00:33:56
  TRACK 13 AUDIO
    TITLE "2:cjc105_0160"
    INDEX 01 00:36:74
  TRACK 14 AUDIO
    TITLE "2:cjc105_0161"
    INDEX 01 00:40:05
  TRACK 15 AUDIO
    TITLE "2:cjc105_0162"
    INDEX 01 00:43:11
  TRACK 16 AUDIO
    TITLE "2:cjc105_0163"
    INDEX 01 00:46:06
  TRACK 17 AUDIO
    TITLE "2:cjc105_0164"
    INDEX 01 00:49:37
  TRACK 18 AUDIO
    TITLE "2:cjc105_0165"
    INDEX 01 00:52:45
  TRACK 19 AUDIO
    TITLE "2:cjc105_0166"
    INDEX 01 00:55:48
  TRACK 20 AUDIO
    TITLE "2:cjc105_0167"
    INDEX 01 00:59:00
  TRACK 21 AUDIO
    TITLE "2:cjc105_0168"
    INDEX 01 01:02:03
  TRACK 22 AUDIO
    TITLE "2:cjc105_0169"
    INDEX 01 01:05:32
  TRACK 23 AUDIO
    TITLE "2:cjc105_0170"
    INDEX 01 01:08:21
  TRACK 24 AUDIO
    TITLE "2:cjc105_0171"
    INDEX 01 01:11:09
  TRACK 25 AUDIO
    TITLE "2:cjc105_0172"
    INDEX 01 01:14:14
  TRACK 26 AUDIO
    TITLE "2:cjc105_0173"
    INDEX 01 01:16:71
  TRACK 27 AUDIO
    TITLE "2:cjc105_0174"
    INDEX 01 01:19:70
  TRACK 28 AUDIO
    TITLE "2:cjc105_0175"
    INDEX 01 01:22:72
  TRACK 29 AUDIO
    TITLE "2:cjc105_0176"
    INDEX 01 01:25:62
  TRACK 30 AUDIO
    TITLE "2:cjc105_0177"
    INDEX 01 01:29:23
  TRACK 31 AUDIO
    TITLE "2:cjc105_0178"
    INDEX 01 01:32:66
  TRACK 32 AUDIO
    TITLE "2:cjc105_0179"
    INDEX 01 01:35:63
  TRACK 33 AUDIO
    TITLE "2:cjc105_0180"
    INDEX 01 01:38:63
  TRACK 34 AUDIO
    TITLE "2:cjc105_0181"
    INDEX 01 01:41:71
  TRACK 35 AUDIO
    TITLE "2:cjc105_0182"
    INDEX 01 01:45:00
  TRACK 36 AUDIO
    TITLE "2:cjc105_0183"
    INDEX 01 01:48:18
  TRACK 37 AUDIO
    TITLE "2:cjc105_0184"
    INDEX 01 01:51:15
  TRACK 38 AUDIO
    TITLE "2:cjc105_0185"
    INDEX 01 01:53:74
  TRACK 39 AUDIO
    TITLE "2:cjc105_0186"
    INDEX 01 01:56:59
  TRACK 40 AUDIO
    TITLE "2:cjc105_0187"
    INDEX 01 01:59:55
  TRACK 41 AUDIO
    TITLE "2:cjc105_0188"
    INDEX 01 02:02:28
  TRACK 42 AUDIO
    TITLE "2:cjc105_0189"
    INDEX 01 02:05:31
  TRACK 43 AUDIO
    TITLE "2:cjc105_0190"
    INDEX 01 02:08:17
  TRACK 44 AUDIO
    TITLE "2:cjc105_0191"
    INDEX 01 02:11:21
  TRACK 45 AUDIO
    TITLE "2:cjc105_0192"
    INDEX 01 02:14:43
  TRACK 46 AUDIO
    TITLE "2:cjc105_0193"
    INDEX 01 02:17:26
  TRACK 47 AUDIO
    TITLE "2:cjc105_0194"
    INDEX 01 02:20:46
  TRACK 48 AUDIO
    TITLE "2:cjc105_0195"
    INDEX 01 02:23:36
  TRACK 49 AUDIO
    TITLE "2:cjc105_0196"
    INDEX 01 02:26:33
  TRACK 50 AUDIO
    TITLE "2:cjc105_0197"
    INDEX 01 02:30:01
  TRACK 51 AUDIO
    TITLE "2:cjc105_0198"
    INDEX 01 02:32:65
  TRACK 52 AUDIO
    TITLE "2:cjc105_0199"
    INDEX 01 02:36:19
  TRACK 53 AUDIO
    TITLE "2:cjc105_0200"
    INDEX 01 02:39:49
  TRACK 54 AUDIO
    TITLE "2:cjc105_0201"
    INDEX 01 02:42:49
  TRACK 55 AUDIO
    TITLE "2:cjc105_0202"
    INDEX 01 02:45:50
  TRACK 56 AUDIO
    TITLE "2:cjc105_0203"
    INDEX 01 02:48:73
  TRACK 57 AUDIO
    TITLE "2:cjc105_0204"
    INDEX 01 02:52:14
  TRACK 58 AUDIO
    TITLE "2:cjc105_0205"
    INDEX 01 02:55:42
  TRACK 59 AUDIO
    TITLE "2:cjc105_0206"
    INDEX 01 02:58:74
  TRACK 60 AUDIO
    TITLE "2:cjc105_0207"
    INDEX 01 03:02:09
  TRACK 61 AUDIO
    TITLE "2:cjc105_0208"
    INDEX 01 03:05:15
  TRACK 62 AUDIO
    TITLE "2:cjc105_0209"
    INDEX 01 03:08:41
  TRACK 63 AUDIO
    TITLE "2:cjc105_0210"
    INDEX 01 03:11:67
  TRACK 64 AUDIO
    TITLE "2:cjc105_0211"
    INDEX 01 03:15:02
  TRACK 65 AUDIO
    TITLE "2:cjc105_0212"
    INDEX 01 03:18:14
  TRACK 66 AUDIO
    TITLE "2:cjc105_0213"
    INDEX 01 03:21:08
  TRACK 67 AUDIO
    TITLE "2:cjc105_0214"
    INDEX 01 03:24:28
  TRACK 68 AUDIO
    TITLE "2:cjc105_0215"
    INDEX 01 03:27:44
  TRACK 69 AUDIO
    TITLE "2:cjc105_0216"
    INDEX 01 03:30:66
  TRACK 70 AUDIO
    TITLE "2:cjc105_0217"
    INDEX 01 03:34:05
  TRACK 71 AUDIO
    TITLE "2:cjc105_0218"
    INDEX 01 03:37:19
  TRACK 72 AUDIO
    TITLE "2:cjc105_0219"
    INDEX 01 03:40:53
  TRACK 73 AUDIO
    TITLE "2:cjc105_0220"
    INDEX 01 03:44:01
  TRACK 74 AUDIO
    TITLE "2:cjc105_0221"
    INDEX 01 03:47:37
  TRACK 75 AUDIO
    TITLE "2:cjc105_0222"
    INDEX 01 03:50:41
  TRACK 76 AUDIO
    TITLE "2:cjc105_0223"
    INDEX 01 03:53:69
  TRACK 77 AUDIO
    TITLE "2:cjc105_0224"
    INDEX 01 03:56:69
  TRACK 78 AUDIO
    TITLE "2:cjc105_0225"
    INDEX 01 04:00:26
  TRACK 79 AUDIO
    TITLE "0:"
    INDEX 01 04:03:69
